<?xml version="1.0" encoding="UTF-8" standalone="no"?>
<!-- Created with Inkscape (http://www.inkscape.org/) -->

<svg
   width="500mm"
   height="41mm"
   viewBox="0 0 500 41"
   version="1.1"
   id="svg5"
   xml:space="preserve"
   inkscape:version="1.2.2 (732a01da63, 2022-12-09)"
   sodipodi:docname="unibike logo.svg"
   xmlns:inkscape="http://www.inkscape.org/namespaces/inkscape"
   xmlns:sodipodi="http://sodipodi.sourceforge.net/DTD/sodipodi-0.dtd"
   xmlns="http://www.w3.org/2000/svg"
   xmlns:svg="http://www.w3.org/2000/svg"><sodipodi:namedview
     id="namedview7"
     pagecolor="#505050"
     bordercolor="#eeeeee"
     borderopacity="1"
     inkscape:showpageshadow="0"
     inkscape:pageopacity="0"
     inkscape:pagecheckerboard="0"
     inkscape:deskcolor="#505050"
     inkscape:document-units="mm"
     showgrid="false"
     inkscape:zoom="0.52724989"
     inkscape:cx="621.1476"
     inkscape:cy="597.43967"
     inkscape:window-width="1920"
     inkscape:window-height="1017"
     inkscape:window-x="-8"
     inkscape:window-y="-8"
     inkscape:window-maximized="1"
     inkscape:current-layer="layer1" /><defs
     id="defs2" /><g
     inkscape:label="Warstwa 1"
     inkscape:groupmode="layer"
     id="layer1"><path
       style="fill:#ff5000;fill-opacity:1;stroke-width:0.363698"
       d="M 15.433488,37.982169 C 13.833219,36.871873 9.7007058,34.073772 6.2501255,31.764167 2.7995452,29.454563 -0.01299127,27.379284 4.5136672e-5,27.152444 0.01307639,26.925592 0.57962255,25.67618 1.2590262,24.375962 1.9384298,23.075743 3.0692767,20.784449 3.7720201,19.284195 4.4747635,17.783941 5.2858787,16.147302 5.5744983,15.647217 5.8631169,15.147132 6.6126284,13.674157 7.2400782,12.373939 7.867529,11.073721 9.4931048,7.800443 10.852471,5.0999938 L 13.324043,0.19007693 29.044448,0.09522919 44.76485,3.8145286e-4 43.291519,2.8229264 c -0.810332,1.5523998 -2.711126,5.3311543 -4.22398,8.3972416 -1.512854,3.066087 -2.900564,5.848373 -3.083802,6.182856 -1.250026,2.28183 -4.726305,9.664015 -4.712505,10.007426 0.0093,0.231305 1.330975,1.279805 2.937065,2.329976 l 2.920164,1.909419 H 49.823836 62.51921 l 2.825209,-5.809713 2.82521,-5.809702 11.390058,-0.0093 11.390058,-0.0093 -0.256935,0.809515 c -0.141311,0.445238 -1.916442,4.086752 -3.944732,8.092275 -2.028295,4.005513 -4.055883,8.141988 -4.505758,9.192158 l -0.817952,1.909419 -31.54065,-0.0072 -31.540649,-0.0072 -2.909581,-2.018711 z m 99.961462,0.850773 c 0.27498,-0.650109 3.33145,-6.876296 6.79216,-13.835955 l 6.29221,-12.653935 -0.84308,-0.621026 c -0.46369,-0.341565 -1.75507,-1.234763 -2.86972,-1.9848953 l -2.02665,-1.363859 -12.91907,8.351e-4 -12.919066,8.351e-4 -1.624008,3.2826291 -1.624007,3.282628 -11.381191,-0.09206 c -6.259656,-0.05062 -11.338921,-0.193819 -11.287254,-0.318204 0.05166,-0.124374 1.705564,-3.442632 3.675335,-7.3739063 l 3.581395,-7.14779769 h 31.569386 31.5694 l 7.03813,4.75525319 c 3.87097,2.6153955 7.97738,5.3567628 9.12538,6.0919358 1.14799,0.735174 2.07939,1.500337 2.06978,1.700373 -0.009,0.200036 -0.40803,1.100182 -0.88539,2.000339 -0.47736,0.900146 -1.26132,2.454958 -1.74213,3.455128 -0.4808,1.000169 -3.1353,6.360159 -5.89888,11.911092 l -5.02469,10.092603 h -15.584 -15.58399 z m 36.72028,0.90924 c 0.0859,-0.150025 3.94641,-7.964973 8.57886,-17.366559 4.63246,-9.401576 8.66561,-17.5029442 8.96258,-18.0030289 0.29696,-0.5000847 0.88521,-1.6866505 1.30721,-2.6368083 l 0.76728,-1.72755879 h 15.59421 c 8.57681,0 15.5942,0.09010535 15.5942,0.20022151 0,0.11012648 -4.43499,9.11164078 -9.85555,20.00336748 l -9.85555,19.803135 h -15.62474 c -8.59361,0 -15.55443,-0.122745 -15.4685,-0.272769 z m 39.08254,-3.930779 c 1.1461,-2.311955 5.60941,-11.272551 9.91847,-19.912437 l 7.83465,-15.70888907 34.94534,-0.09268274 34.94533,-0.09278583 4.5007,3.03355024 c 5.43403,3.6626382 7.35127,4.9730422 7.51382,5.1355927 0.0673,0.067424 -0.86205,2.0865777 -2.0654,4.4871127 l -2.18791,4.364604 -2.31823,1.129369 c -1.27503,0.621149 -2.50988,1.129368 -2.74412,1.129368 -0.94686,0 -0.31769,0.805639 1.57446,2.01603 1.10018,0.70378 2.00034,1.469057 2.00034,1.70061 0,0.231552 -1.43175,3.281474 -3.18167,6.777602 -3.12373,6.240827 -3.21148,6.369284 -4.819,7.053961 -0.90052,0.383566 -2.84087,1.256547 -4.31188,1.939976 l -2.67455,1.242578 h -40.50709 -40.50708 z m 71.08626,-4.845977 c 1.42679,-0.611593 1.73988,-0.981623 2.93973,-3.474397 0.73859,-1.534451 1.34288,-2.909609 1.34288,-3.055911 0,-0.146313 -0.47532,-0.546808 -1.05628,-0.889981 -0.96215,-0.568355 -2.7746,-0.623965 -20.33723,-0.623965 h -19.28096 l -2.03016,4.005431 c -1.11659,2.202983 -2.03016,4.16695 -2.03016,4.364367 0,0.231645 6.89006,0.358947 19.42766,0.358947 18.21364,0 19.52746,-0.04278 21.02452,-0.684491 z m 3.96844,-14.569747 c 1.31613,-0.58219 1.7717,-1.063006 2.59211,-2.73579 0.54744,-1.116203 0.99534,-2.274934 0.99534,-2.574962 0,-0.300017 -0.76853,-1.032881 -1.70784,-1.6285766 l -1.70784,-1.0830787 h -16.6446 -16.64459 l -2.01463,4.0042243 c -1.10804,2.202323 -2.01463,4.16629 -2.01463,4.364377 0,0.23281 6.28447,0.360133 17.77496,0.360133 16.80763,0 17.86183,-0.03845 19.37172,-0.706327 z m 15.58947,23.473176 c 0,-0.154045 5.54496,-11.388801 6.39006,-12.947015 0.27122,-0.500085 3.38298,-6.760221 6.91503,-13.911431 l 6.42189,-13.00218199 h 15.61985 15.61984 l -0.24277,0.76489546 c -0.13353,0.42070123 -0.61131,1.30798123 -1.06176,1.97174013 -0.45043,0.6637692 -1.2034,2.1607758 -1.67326,3.326702 -0.46984,1.1659158 -1.3124,2.8474734 -1.87232,3.736774 -0.55994,0.8893114 -1.01807,1.7459304 -1.01807,1.9036144 0,0.296956 -0.67623,1.693476 -4.10697,8.481481 -2.77492,5.490447 -8.21208,16.394761 -9.11274,18.275809 l -0.74011,1.545708 h -15.56934 c -8.56313,0 -15.56933,-0.06577 -15.56933,-0.146096 z m 36.51921,-1.035913 c 0.2876,-0.650109 4.74964,-9.610715 9.91564,-19.912447 l 9.39272,-18.73041807 11.72925,-0.09598179 c 6.45108,-0.05278483 11.72924,-0.03371218 11.72924,0.0422691 0,0.0760844 -1.30931,2.72897566 -2.90958,5.89538486 -1.60027,3.1664093 -2.90959,5.8069089 -2.90959,5.8677759 0,0.613696 1.60271,-0.142251 13.63867,-6.4329447 2.80047,-1.4636861 6.35532,-3.2924536 7.89969,-4.0639163 L 379.65511,0 394.47895,0.09505393 409.3028,0.19010786 404.58229,2.5955599 c -5.58108,2.8439991 -15.82223,8.1236671 -20.17764,10.4022921 -1.70029,0.889548 -4.23709,2.180023 -5.63732,2.867752 -1.40023,0.687718 -2.95504,1.503862 -3.45513,1.813654 -0.50008,0.309791 -1.5213,0.838557 -2.2694,1.175039 -2.02205,0.909477 -2.32268,0.550653 3.95027,4.714706 2.02467,1.343993 8.30929,5.553242 13.96583,9.353884 l 10.28461,6.910256 -12.21085,0.09567 -12.21089,0.09567 -6.30117,-4.265705 c -13.91781,-9.421958 -12.97744,-8.877192 -14.25999,-8.260939 -0.62349,0.299585 -1.39282,0.686079 -1.70962,0.858867 -0.3168,0.172808 -2.70794,1.420499 -5.31365,2.772657 l -4.73764,2.458474 -1.56566,3.213524 -1.56566,3.213513 h -11.76507 -11.76507 z m 91.25744,0.34371 c -0.56544,-0.461073 -3.56485,-2.527702 -6.66538,-4.592527 -3.10052,-2.064815 -5.67589,-3.7856 -5.72307,-3.823973 -0.24906,-0.202623 13.51631,-27.2331358 14.19494,-27.8739972 0.44135,-0.4167836 1.84794,-1.2348144 3.12583,-1.81786 l 2.32341,-1.06006779 h 41.62336 c 22.89287,0 41.56884,0.12769392 41.50214,0.28377 -0.0667,0.15607608 -1.00213,2.03821599 -2.07878,4.18252749 l -1.9576,3.8987472 h -27.91572 -27.91571 l -2.42837,1.136379 c -2.39935,1.1227803 -2.44517,1.1716173 -3.83152,4.0809273 -0.77173,1.619504 -1.32429,3.072097 -1.22795,3.227988 0.0963,0.155901 13.34046,0.28344 29.43135,0.28344 19.80242,0 29.2562,0.120879 29.2562,0.374071 0,0.580901 -2.22627,4.866947 -2.68373,5.166748 -0.22422,0.146963 -13.70303,0.269718 -29.95289,0.27278 l -29.54519,0.0052 -1.09632,2.171807 c -0.60298,1.194504 -1.09634,2.413236 -1.09634,2.708295 0,0.295059 0.90044,1.134162 2.001,1.864665 1.10054,0.730503 2.0922,1.475738 2.20364,1.656083 0.11736,0.189871 11.36776,0.327895 26.72773,0.327895 h 26.52504 l -1.1786,2.454958 c -0.64825,1.35022 -1.31535,2.555085 -1.48247,2.677459 -0.16712,0.122385 -0.27298,0.286048 -0.2353,0.3637 0.0377,0.07763 -0.22412,0.754926 -0.58185,1.505058 l -0.65037,1.363859 H 445.46636 410.6467 Z"
       id="path326" /></g></svg>
